<svg width="34" height="34" viewBox="0 0 34 34" fill="none" xmlns="http://www.w3.org/2000/svg">
<g clip-path="url(#clip0_2715_1215)">
<rect width="33.6" height="33.6" rx="5.6" fill="#303030"/>
<g clip-path="url(#clip1_2715_1215)">
<path d="M25.535 9.26555C23.9283 8.5402 22.2066 8.0061 20.4055 7.70056C20.3725 7.69455 20.3394 7.70898 20.3236 7.73906C20.1022 8.12639 19.8565 8.63282 19.6853 9.02978C17.7484 8.74469 15.8213 8.74469 13.9236 9.02978C13.7512 8.62319 13.4968 8.12639 13.2743 7.73906C13.2572 7.71019 13.2242 7.69575 13.1924 7.70056C11.3925 8.0061 9.66959 8.5402 8.06287 9.26555C8.04942 9.27157 8.03719 9.28119 8.02863 9.29442C4.76139 14.0965 3.8663 18.7806 4.30528 23.407C4.30772 23.4299 4.31995 23.4515 4.33829 23.4648C6.49404 25.0225 8.58255 25.968 10.6319 26.5947C10.6649 26.6044 10.6992 26.5923 10.7199 26.5659C11.2042 25.9151 11.637 25.2282 12.0075 24.5053C12.0295 24.4632 12.0075 24.4126 11.9635 24.3958C11.2775 24.1396 10.6258 23.828 9.99727 23.4744C9.94714 23.4455 9.94349 23.3757 9.98873 23.3421C10.1208 23.2446 10.2528 23.1436 10.3788 23.0413C10.402 23.0221 10.4338 23.0185 10.4607 23.0305C14.5851 24.883 19.0507 24.883 23.1262 23.0305C23.1531 23.0173 23.1848 23.0221 23.2081 23.0401C23.334 23.1424 23.4661 23.2446 23.5994 23.3421C23.6446 23.3757 23.6422 23.4455 23.592 23.4744C22.9648 23.8353 22.3118 24.1408 21.6246 24.3958C21.5794 24.4126 21.5598 24.4632 21.5818 24.5065C21.9608 25.227 22.3925 25.9139 22.8681 26.5659C22.8877 26.5935 22.9232 26.6056 22.9562 26.5959C25.0153 25.9692 27.1038 25.0237 29.2596 23.466C29.2779 23.4527 29.2901 23.4311 29.2926 23.4094C29.8184 18.0613 28.4122 13.4156 25.5668 9.29683C25.5595 9.2836 25.5485 9.27277 25.5338 9.26676L25.535 9.26555ZM12.6213 20.5898C11.379 20.5898 10.3568 19.4687 10.3568 18.0913C10.3568 16.714 11.3607 15.5929 12.6213 15.5929C13.882 15.5929 14.9067 16.7248 14.8859 18.0913C14.8859 19.4687 13.882 20.5898 12.6213 20.5898ZM20.9961 20.5898C19.7537 20.5898 18.7315 19.4687 18.7315 18.0913C18.7315 16.714 19.7354 15.5929 20.9961 15.5929C22.2568 15.5929 23.2814 16.7248 23.2606 18.0913C23.2606 19.4687 22.2678 20.5898 20.9961 20.5898Z" fill="white"/>
</g>
<rect x="0.35" y="0.35" width="32.9" height="32.9" rx="5.25" stroke="#606060" stroke-width="0.7"/>
</g>
<defs>
<clipPath id="clip0_2715_1215">
<rect width="33.6" height="33.6" rx="5.6" fill="white"/>
</clipPath>
<clipPath id="clip1_2715_1215">
<rect width="25.2" height="25.2" fill="white" transform="translate(4.20117 4.19922)"/>
</clipPath>
</defs>
</svg>