<svg width="34" height="34" viewBox="0 0 34 34" fill="none" xmlns="http://www.w3.org/2000/svg">
<g clip-path="url(#clip0_2715_1201)">
<rect width="33.6" height="33.6" rx="5.6" fill="#303030"/>
<g clip-path="url(#clip1_2715_1201)">
<g clip-path="url(#clip2_2715_1201)">
<path d="M16.7992 4.19922C9.84191 4.19922 4.19922 9.98349 4.19922 17.1177C4.19922 22.8255 7.80912 27.6679 12.8166 29.3764C13.4455 29.4959 13.6492 29.0954 13.6492 28.7552V26.3501C10.1443 27.1317 9.41457 24.8258 9.41457 24.8258C8.84127 23.3327 8.01491 22.9354 8.01491 22.9354C6.87146 22.1334 8.10207 22.1506 8.10207 22.1506C9.36732 22.241 10.033 23.4823 10.033 23.4823C11.1565 25.4567 12.9804 24.8862 13.6996 24.5557C13.812 23.7213 14.1385 23.1508 14.4997 22.8288C11.7015 22.5005 8.75937 21.3927 8.75937 16.4438C8.75937 15.0325 9.25182 13.8806 10.0572 12.9763C9.92696 12.6501 9.49541 11.3356 10.18 9.55718C10.18 9.55718 11.2384 9.21053 13.6461 10.8813C14.6509 10.595 15.7282 10.4518 16.7992 10.4464C17.8702 10.4518 18.9485 10.595 19.9555 10.8813C22.3611 9.21053 23.4174 9.55718 23.4174 9.55718C24.1031 11.3367 23.6715 12.6512 23.5412 12.9763C24.3498 13.8806 24.838 15.0336 24.838 16.4438C24.838 21.4057 21.8906 22.4983 19.0851 22.8181C19.5366 23.2185 19.9492 24.0044 19.9492 25.2101V28.7552C19.9492 29.0986 20.1508 29.5023 20.7903 29.3753C25.7935 27.6647 29.3992 22.8234 29.3992 17.1177C29.3992 9.98349 23.7576 4.19922 16.7992 4.19922Z" fill="white"/>
</g>
</g>
<rect x="0.35" y="0.35" width="32.9" height="32.9" rx="5.25" stroke="#606060" stroke-width="0.7"/>
</g>
<defs>
<clipPath id="clip0_2715_1201">
<rect width="33.6" height="33.6" rx="5.6" fill="white"/>
</clipPath>
<clipPath id="clip1_2715_1201">
<rect width="25.2" height="25.2" fill="white" transform="translate(4.19922 4.19922)"/>
</clipPath>
<clipPath id="clip2_2715_1201">
<rect width="25.2" height="25.2" fill="white" transform="translate(4.19922 4.19922)"/>
</clipPath>
</defs>
</svg>