<svg width="34" height="34" viewBox="0 0 34 34" fill="none" xmlns="http://www.w3.org/2000/svg">
<g clip-path="url(#clip0_2715_1206)">
<rect width="33.6" height="33.6" rx="5.6" fill="#303030"/>
<g clip-path="url(#clip1_2715_1206)">
<mask id="mask0_2715_1206" style="mask-type:luminance" maskUnits="userSpaceOnUse" x="5" y="5" width="24" height="24">
<path d="M28.1409 5.45898H5.46094V28.139H28.1409V5.45898Z" fill="white"/>
</mask>
<g mask="url(#mask0_2715_1206)">
<path d="M5.46094 7.08344C5.46094 6.18617 6.20654 5.45898 7.12649 5.45898H26.4753C27.3953 5.45898 28.1409 6.18617 28.1409 7.08344V26.5146C28.1409 27.4118 27.3953 28.139 26.4753 28.139H7.12649C6.20654 28.139 5.46094 27.4118 5.46094 26.5146V7.08344ZM12.4676 24.445V14.2035H9.06422V24.445H12.4676ZM10.7666 12.8045C11.9531 12.8045 12.6916 12.0192 12.6916 11.0354C12.6703 10.0304 11.9545 9.26639 10.7893 9.26639C9.62414 9.26639 8.86294 10.0318 8.86294 11.0354C8.86294 12.0192 9.60146 12.8045 10.744 12.8045H10.7666ZM17.7238 24.445V18.7254C17.7238 18.4192 17.7464 18.113 17.8372 17.8947C18.0824 17.2837 18.6423 16.6501 19.5835 16.6501C20.8153 16.6501 21.3072 17.5885 21.3072 18.9663V24.445H24.7106V18.5708C24.7106 15.424 23.0323 13.9611 20.7926 13.9611C18.9867 13.9611 18.1774 14.9534 17.7238 15.6522V15.6877H17.7011C17.7086 15.6758 17.7161 15.664 17.7238 15.6522V14.2035H14.3217C14.3642 15.1646 14.3217 24.445 14.3217 24.445H17.7238Z" fill="white"/>
</g>
</g>
<rect x="0.35" y="0.35" width="32.9" height="32.9" rx="5.25" stroke="#606060" stroke-width="0.7"/>
</g>
<defs>
<clipPath id="clip0_2715_1206">
<rect width="33.6" height="33.6" rx="5.6" fill="white"/>
</clipPath>
<clipPath id="clip1_2715_1206">
<rect width="25.2" height="25.2" fill="white" transform="translate(4.20117 4.19922)"/>
</clipPath>
</defs>
</svg>