<svg width="34" height="34" viewBox="0 0 34 34" fill="none" xmlns="http://www.w3.org/2000/svg">
<g clip-path="url(#clip0_2715_1190)">
<rect width="33.6" height="33.6" rx="5.6" fill="#303030"/>
<g clip-path="url(#clip1_2715_1190)">
<g clip-path="url(#clip2_2715_1190)">
<path d="M25.3167 0.572266H8.17962C4.00408 0.572266 0.619141 4.07004 0.619141 8.38477V26.0931C0.619141 30.4078 4.00408 33.9056 8.17962 33.9056H25.3167C29.4923 33.9056 32.8772 30.4078 32.8772 26.0931V8.38477C32.8772 4.07004 29.4923 0.572266 25.3167 0.572266Z" fill="#303030"/>
<path d="M5.86668 27.0092H9.87601V16.9476L4.14844 12.5088V25.2337C4.14844 26.2161 4.91885 27.0092 5.86668 27.0092Z" fill="white"/>
<path d="M23.6191 27.0092H27.6286C28.5793 27.0092 29.3468 26.2132 29.3468 25.2337V12.5088L23.6191 16.9476" fill="white"/>
<path d="M23.6191 9.2514V16.9455L29.3468 12.5067V10.139C29.3468 7.94333 26.9212 6.69151 25.223 8.00843" fill="white"/>
<path d="M9.87512 16.9451V9.25111L16.7482 14.5778L23.6213 9.25098V16.9451L16.7482 22.2719" fill="white"/>
<path d="M4.14844 10.1392V12.5065L9.87601 16.9454V9.2514L8.2723 8.00843C6.57119 6.6915 4.14844 7.94333 4.14844 10.1392Z" fill="white"/>
</g>
</g>
<rect x="0.35" y="0.35" width="32.9" height="32.9" rx="5.25" stroke="#606060" stroke-width="0.7"/>
</g>
<defs>
<clipPath id="clip0_2715_1190">
<rect width="33.6" height="33.6" rx="5.6" fill="white"/>
</clipPath>
<clipPath id="clip1_2715_1190">
<rect width="30" height="30" fill="white" transform="translate(2 2)"/>
</clipPath>
<clipPath id="clip2_2715_1190">
<rect width="32.2581" height="33.3333" fill="white" transform="translate(0.619141 0.572266)"/>
</clipPath>
</defs>
</svg>