<svg width="224" height="111" viewBox="0 0 224 111" fill="none" xmlns="http://www.w3.org/2000/svg">
<g filter="url(#filter0_f_3547_658)">
<rect y="23.751" width="87.7822" height="87.7822" rx="27.5395" transform="rotate(-8 0 23.751)" fill="#3E4B72"/>
<circle cx="33.0488" cy="48.6555" r="5.16366" transform="rotate(-8 33.0488 48.6555)" stroke="#8EA3E6" stroke-width="5.16366" stroke-linecap="round" stroke-linejoin="round"/>
<path d="M18.1588 66.3908C16.0133 51.1244 14.9405 43.4912 19.0166 38.082C23.0927 32.6728 30.7259 31.6 45.9923 29.4545C61.2587 27.3089 68.8919 26.2361 74.3011 30.3123C79.7103 34.3884 80.7831 42.0216 82.9286 57.288C85.0742 72.5543 86.147 80.1875 82.0708 85.5967C77.9947 91.0059 70.3615 92.0787 55.0951 94.2243C39.8287 96.3698 32.1955 97.4426 26.7863 93.3665C21.3771 89.2903 20.3044 81.6572 18.1588 66.3908Z" stroke="#8EA3E6" stroke-width="5.16366"/>
<path d="M30.9935 95.8726C43.3956 75.9662 56.8035 50.127 83.6594 62.5463" stroke="#8EA3E6" stroke-width="5.16366"/>
</g>
<g filter="url(#filter1_f_3547_658)">
<rect x="136.15" y="11.5342" width="87.7822" height="87.7822" rx="27.5395" transform="rotate(8 136.15 11.5342)" fill="#3E4B72"/>
<path d="M142.095 55.8165C144.241 40.5502 145.314 32.917 150.723 28.8408C156.132 24.7647 163.765 25.8375 179.032 27.983C194.298 30.1286 201.931 31.2014 206.007 36.6106C210.083 42.0198 209.011 49.653 206.865 64.9193C204.719 80.1857 203.647 87.8189 198.237 91.8951C192.828 95.9712 185.195 94.8984 169.929 92.7528C154.662 90.6073 147.029 89.5345 142.953 84.1253C138.877 78.7161 139.95 71.0829 142.095 55.8165Z" stroke="#8EA3E6" stroke-width="5.16366"/>
<circle cx="191.977" cy="47.1836" r="5.16366" transform="rotate(8 191.977 47.1836)" stroke="#8EA3E6" stroke-width="5.16366"/>
<path d="M183.325 96.3728C182.279 88.4906 178.305 81.0048 171.983 75.0829C165.167 68.6976 156.066 64.546 146.303 63.3688C145.147 63.2036 143.987 63.0782 142.825 62.9926" stroke="#8EA3E6" stroke-width="5.16366" stroke-linejoin="round"/>
<path d="M175.013 81.3013C181.449 77.594 188.023 76.152 194.332 77.0641C197.912 77.5635 201.368 78.8232 204.63 80.8114" stroke="#8EA3E6" stroke-width="5.16366" stroke-linejoin="round"/>
</g>
<rect x="65.9277" width="92.9458" height="92.9458" rx="27.5395" fill="#3E4B72"/>
<path d="M149.763 28.0961C151.189 28.0961 152.345 26.9402 152.345 25.5143C152.345 24.0884 151.189 22.9325 149.763 22.9325V25.5143V28.0961ZM120.604 22.9325C119.178 22.9325 118.022 24.0884 118.022 25.5143C118.022 26.9402 119.178 28.0961 120.604 28.0961V25.5143V22.9325ZM137.765 10.9346C137.765 9.50867 136.609 8.35274 135.183 8.35274C133.757 8.35274 132.601 9.50867 132.601 10.9346H135.183H137.765ZM132.601 40.0941C132.601 41.52 133.757 42.6759 135.183 42.6759C136.609 42.6759 137.765 41.52 137.765 40.0941H135.183H132.601ZM149.763 25.5143V22.9325H135.183V25.5143V28.0961H149.763V25.5143ZM135.183 25.5143V22.9325H120.604V25.5143V28.0961H135.183V25.5143ZM135.183 10.9346H132.601V25.5143H135.183H137.765V10.9346H135.183ZM135.183 25.5143H132.601V40.0941H135.183H137.765V25.5143H135.183Z" fill="#8EA3E6"/>
<path d="M111.49 14.5801C95.1668 14.5801 87.0052 14.5801 81.9342 19.6511C76.8632 24.7221 76.8632 32.8837 76.8632 49.207C76.8632 65.5302 76.8632 73.6919 81.9342 78.7629C87.0052 83.8338 95.1668 83.8338 111.49 83.8338C127.813 83.8338 135.975 83.8338 141.046 78.7629C146.117 73.6919 146.117 65.5302 146.117 49.207V47.3845" stroke="#8EA3E6" stroke-width="5.16366" stroke-linecap="round"/>
<path d="M76.8632 55.1675C79.1195 54.8398 81.4006 54.6779 83.6855 54.6836C93.3516 54.4793 102.781 57.4912 110.291 63.1818C117.256 68.4595 122.151 75.7229 124.247 83.8333" stroke="#8EA3E6" stroke-width="5.16366" stroke-linejoin="round"/>
<path d="M146.115 65.2305C141.831 63.0604 137.399 61.9595 132.943 61.9641C126.194 61.9374 119.512 64.4182 113.311 69.2537" stroke="#8EA3E6" stroke-width="5.16366" stroke-linejoin="round"/>
<defs>
<filter id="filter0_f_3547_658" x="-2" y="9.53418" width="103.145" height="103.145" filterUnits="userSpaceOnUse" color-interpolation-filters="sRGB">
<feFlood flood-opacity="0" result="BackgroundImageFix"/>
<feBlend mode="normal" in="SourceGraphic" in2="BackgroundImageFix" result="shape"/>
<feGaussianBlur stdDeviation="1" result="effect1_foregroundBlur_3547_658"/>
</filter>
<filter id="filter1_f_3547_658" x="121.933" y="9.53418" width="103.145" height="103.145" filterUnits="userSpaceOnUse" color-interpolation-filters="sRGB">
<feFlood flood-opacity="0" result="BackgroundImageFix"/>
<feBlend mode="normal" in="SourceGraphic" in2="BackgroundImageFix" result="shape"/>
<feGaussianBlur stdDeviation="1" result="effect1_foregroundBlur_3547_658"/>
</filter>
</defs>
</svg>
